<?xml version="1.0" encoding="UTF-8" standalone="no"?>
<!-- Created with Inkscape (http://www.inkscape.org/) -->

<svg
   xmlns:dc="http://purl.org/dc/elements/1.1/"
   xmlns:cc="http://creativecommons.org/ns#"
   xmlns:rdf="http://www.w3.org/1999/02/22-rdf-syntax-ns#"
   xmlns:svg="http://www.w3.org/2000/svg"
   xmlns="http://www.w3.org/2000/svg"
   xmlns:xlink="http://www.w3.org/1999/xlink"
   xmlns:inkscape="http://www.inkscape.org/namespaces/inkscape"
   version="1.0"
   width="1500"
   height="1690.83"
   id="svg2">
  <metadata
     id="metadata3111">
    <rdf:RDF>
      <cc:Work
         rdf:about="">
        <dc:format>image/svg+xml</dc:format>
        <dc:type
           rdf:resource="http://purl.org/dc/dcmitype/StillImage" />
        <dc:title />
      </cc:Work>
    </rdf:RDF>
  </metadata>
  <defs
     id="defs4">
    <linearGradient
       id="linearGradient3187">
      <stop
         id="stop3189"
         style="stop-color:#f3f136;stop-opacity:1"
         offset="0" />
      <stop
         id="stop3191"
         style="stop-color:#fbfba9;stop-opacity:1"
         offset="0.62259704" />
      <stop
         id="stop3193"
         style="stop-color:#f3f136;stop-opacity:1"
         offset="1" />
    </linearGradient>
    <linearGradient
       id="linearGradient3179">
      <stop
         id="stop3181"
         style="stop-color:#9375da;stop-opacity:1"
         offset="0" />
      <stop
         id="stop3183"
         style="stop-color:#ceafef;stop-opacity:1"
         offset="0.49561292" />
      <stop
         id="stop3185"
         style="stop-color:#9375da;stop-opacity:1"
         offset="1" />
    </linearGradient>
    <linearGradient
       id="linearGradient3159">
      <stop
         id="stop3161"
         style="stop-color:#eb7570;stop-opacity:1"
         offset="0" />
      <stop
         id="stop3167"
         style="stop-color:#f4b4b2;stop-opacity:1"
         offset="0.62259704" />
      <stop
         id="stop3163"
         style="stop-color:#eb7570;stop-opacity:1"
         offset="1" />
    </linearGradient>
    <linearGradient
       x1="54.285709"
       y1="372.36218"
       x2="144.28571"
       y2="372.36218"
       id="linearGradient3122"
       xlink:href="#linearGradient3187"
       gradientUnits="userSpaceOnUse"
       gradientTransform="translate(1320.7143,10.467776)" />
    <linearGradient
       x1="50"
       y1="372.36218"
       x2="140"
       y2="372.36218"
       id="linearGradient3128"
       xlink:href="#linearGradient3159"
       gradientUnits="userSpaceOnUse"
       gradientTransform="translate(710.99999,10.467776)" />
    <linearGradient
       x1="54.285709"
       y1="372.36218"
       x2="144.28571"
       y2="372.36218"
       id="linearGradient3131"
       xlink:href="#linearGradient3187"
       gradientUnits="userSpaceOnUse"
       gradientTransform="translate(1212.7143,10.467776)" />
    <linearGradient
       x1="50"
       y1="372.36218"
       x2="140"
       y2="372.36218"
       id="linearGradient3137"
       xlink:href="#linearGradient3159"
       gradientUnits="userSpaceOnUse"
       gradientTransform="translate(824.99999,10.467776)" />
    <linearGradient
       x1="54.285709"
       y1="372.36218"
       x2="144.28571"
       y2="372.36218"
       id="linearGradient3140"
       xlink:href="#linearGradient3187"
       gradientUnits="userSpaceOnUse"
       gradientTransform="translate(410.42858,11.470716)" />
    <linearGradient
       x1="54.285709"
       y1="372.36218"
       x2="144.28571"
       y2="372.36218"
       id="linearGradient3143"
       xlink:href="#linearGradient3179"
       gradientUnits="userSpaceOnUse"
       gradientTransform="translate(250.42858,11.470716)" />
    <linearGradient
       x1="50"
       y1="372.36218"
       x2="140"
       y2="372.36218"
       id="linearGradient3146"
       xlink:href="#linearGradient3159"
       gradientUnits="userSpaceOnUse"
       gradientTransform="translate(104.71429,11.470716)" />
    <linearGradient
       x1="54.285709"
       y1="372.36218"
       x2="144.28571"
       y2="372.36218"
       id="linearGradient3168"
       xlink:href="#linearGradient3187"
       gradientUnits="userSpaceOnUse"
       gradientTransform="translate(414.42858,851.47072)" />
    <linearGradient
       x1="50"
       y1="372.36218"
       x2="140"
       y2="372.36218"
       id="linearGradient3960"
       xlink:href="#linearGradient3159"
       gradientUnits="userSpaceOnUse"
       gradientTransform="translate(44.71429,851.47072)" />
  </defs>
  <path
     d="m 204.71429,108.8329 c 22.95143,0 40,17.04857 40,40 0,0 0,85 0,160 0,75 -15,65 -15,75 0,10 15,0 15,80 0,35.35715 0,155 0,155 0,22.95143 -17.04857,45 -40,45 C 181.76287,663.8329 159,643.92717 159,620.97574 c 0,0 0.71429,-100.71427 0.71429,-157.14284 0,-80 15,-70 15,-80 0,-10 -15,0 -15,-75 0,-56.19696 0,-160 0,-160 0,-22.95143 22.04858,-40 45,-40 z"
     inkscape:connector-curvature="0"
     id="rect2386"
     style="fill:url(#linearGradient3146);fill-opacity:1;fill-rule:nonzero;stroke:#000000;stroke-width:2;stroke-linecap:round;stroke-linejoin:round;stroke-miterlimit:4;stroke-opacity:1;stroke-dasharray:none;stroke-dashoffset:0" />
  <path
     d="m 350.42858,108.8329 c 22.95143,0 40,17.04857 40,40 0,0 0,9.60972 0,28 0,75 -15,65 -15,75 0,10 15,0 15,80 0,35.35715 0,397 0,397 0,22.95143 -17.04857,45 -40,45 -22.95142,0 -45.71429,-19.90573 -45.71429,-42.85716 0,0 0.71429,-342.71427 0.71429,-399.14284 0,-80 15,-70 15,-80 0,-10 -15,0 -15,-75 0,-16.19276 0,-28 0,-28 0,-22.95143 22.04858,-40 45,-40 z"
     inkscape:connector-curvature="0"
     id="path3171"
     style="fill:url(#linearGradient3143);fill-opacity:1;fill-rule:nonzero;stroke:#000000;stroke-width:2;stroke-linecap:round;stroke-linejoin:round;stroke-miterlimit:4;stroke-opacity:1;stroke-dasharray:none;stroke-dashoffset:0" />
  <path
     d="m 510.42858,108.8329 c 22.95143,0 40,17.04857 40,40 0,0 0,45 0,120 0,75 -15,65 -15,75 0,10 15,0 15,80 0,35.35715 0,117 0,117 0,22.95143 -17.04857,45 -40,45 -22.95142,0 -45.71429,-19.90573 -45.71429,-42.85716 0,0 0.71429,-62.71427 0.71429,-119.14284 0,-80 15,-70 15,-80 0,-10 -15,0 -15,-75 0,-56.19696 0,-120 0,-120 0,-22.95143 22.04858,-40 45,-40 z"
     inkscape:connector-curvature="0"
     id="path3175"
     style="fill:url(#linearGradient3140);fill-opacity:1;fill-rule:nonzero;stroke:#000000;stroke-width:2;stroke-linecap:round;stroke-linejoin:round;stroke-miterlimit:4;stroke-opacity:1;stroke-dasharray:none;stroke-dashoffset:0" />
  <path
     d="m 925,107.82996 c 22.95143,0 40,17.0486 40,40 0,0 0,85 0,160 0,75 -15,65 -15,75 0,10 15,0 15,80 0,35.3571 0,155 0,155 0,22.9514 -17.04857,45 -40,45 -22.95142,0 -45.71429,-19.9058 -45.71429,-42.8572 0,0 0.71429,-100.7142 0.71429,-157.1428 0,-80 15,-70 15,-80 0,-10 -15,0 -15,-75 0,-56.197 0,-160 0,-160 0,-22.9514 22.04858,-40 45,-40 z"
     inkscape:connector-curvature="0"
     id="path3199"
     style="fill:url(#linearGradient3137);fill-opacity:1;fill-rule:nonzero;stroke:#000000;stroke-width:2;stroke-linecap:round;stroke-linejoin:round;stroke-miterlimit:4;stroke-opacity:1;stroke-dasharray:none;stroke-dashoffset:0" />
  <path
     d="m 1312.7143,107.82996 c 22.9514,0 40,17.0486 40,40 0,0 0,45 0,120 0,75 -15,65 -15,75 0,10 15,0 15,80 0,35.3571 0,117 0,117 0,22.9514 -17.0486,45 -40,45 -22.9514,0 -45.7143,-19.9058 -45.7143,-42.8572 0,0 0.7143,-62.7142 0.7143,-119.1428 0,-80 15,-70 15,-80 0,-10 -15,0 -15,-75 0,-56.197 0,-120 0,-120 0,-22.9514 22.0486,-40 45,-40 z"
     inkscape:connector-curvature="0"
     id="path3203"
     style="fill:url(#linearGradient3131);fill-opacity:1;fill-rule:nonzero;stroke:#000000;stroke-width:2;stroke-linecap:round;stroke-linejoin:round;stroke-miterlimit:4;stroke-opacity:1;stroke-dasharray:none;stroke-dashoffset:0" />
  <path
     d="m 810.99999,107.82996 c 22.95143,0 40.00001,17.0486 40.00001,40 0,0 0,85 0,160 0,75 -15.00001,65 -15.00001,75 0,10 15.00001,0 15.00001,80 0,35.3571 0,155 0,155 0,22.9514 -17.04858,45 -40.00001,45 -22.95142,0 -45.71428,-19.9058 -45.71428,-42.8572 0,0 0.71428,-100.7142 0.71428,-157.1428 0,-80 15,-70 15,-80 0,-10 -15,0 -15,-75 0,-56.197 0,-160 0,-160 0,-22.9514 22.04858,-40 45,-40 z"
     inkscape:connector-curvature="0"
     id="path3221"
     style="fill:url(#linearGradient3128);fill-opacity:1;fill-rule:nonzero;stroke:#000000;stroke-width:2;stroke-linecap:round;stroke-linejoin:round;stroke-miterlimit:4;stroke-opacity:1;stroke-dasharray:none;stroke-dashoffset:0" />
  <path
     d="m 1420.7143,107.82996 c 22.9514,0 40,17.0486 40,40 0,0 0,45 0,120 0,75 -15,65 -15,75 0,10 15,0 15,80 0,35.3571 0,117 0,117 0,22.9514 -17.0486,45 -40,45 -22.9514,0 -45.7143,-19.9058 -45.7143,-42.8572 0,0 0.7143,-62.7142 0.7143,-119.1428 0,-80 15,-70 15,-80 0,-10 -15,0 -15,-75 0,-56.197 0,-120 0,-120 0,-22.9514 22.0486,-40 45,-40 z"
     inkscape:connector-curvature="0"
     id="path3229"
     style="fill:url(#linearGradient3122);fill-opacity:1;fill-rule:nonzero;stroke:#000000;stroke-width:2;stroke-linecap:round;stroke-linejoin:round;stroke-miterlimit:4;stroke-opacity:1;stroke-dasharray:none;stroke-dashoffset:0" />
  <g
     transform="translate(824.99999,-829.53222)"
     id="flowRoot3233"
     style="font-size:72px;font-style:normal;font-weight:normal;text-align:center;writing-mode:lr-tb;text-anchor:middle;fill:#000000;fill-opacity:1;stroke:none;font-family:Bitstream Vera Sans">
    <path
       d="m 87.253906,851.20735 0,40.8164 8.578125,0 c 7.242159,1e-5 12.539029,-1.64062 15.890629,-4.92187 3.37495,-3.28124 5.06245,-8.46092 5.0625,-15.53907 -5e-5,-7.03121 -1.68755,-12.17574 -5.0625,-15.43359 -3.3516,-3.2812 -8.64847,-4.92183 -15.890629,-4.92187 l -8.578125,0 m -7.101562,-5.83594 14.589843,0 c 10.171843,5e-5 17.636683,2.12114 22.394533,6.36328 4.75776,4.21879 7.13667,10.82816 7.13672,19.82812 -5e-5,9.0469 -2.39068,15.69142 -7.17188,19.9336 -4.78129,4.24219 -12.2344,6.36328 -22.359373,6.36328 l -14.589843,0 0,-52.48828"
       inkscape:connector-curvature="0"
       id="path4070" />
    <path
       d="m 135.27734,858.48469 6.46875,0 0,39.375 -6.46875,0 0,-39.375 m 0,-15.32813 6.46875,0 0,8.19141 -6.46875,0 0,-8.19141"
       inkscape:connector-curvature="0"
       id="path4072" />
    <path
       d="m 161.50391,891.95344 0,20.88281 -6.50391,0 0,-54.35156 6.50391,0 0,5.97656 c 1.35936,-2.34371 3.07029,-4.07809 5.13281,-5.20312 2.08592,-1.1484 4.57029,-1.72262 7.45312,-1.72266 4.78122,4e-5 8.66013,1.89848 11.63672,5.69531 2.99996,3.79691 4.49996,8.78909 4.5,14.97657 -4e-5,6.18751 -1.50004,11.17969 -4.5,14.97656 -2.97659,3.79687 -6.8555,5.69531 -11.63672,5.69531 -2.88283,0 -5.3672,-0.5625 -7.45312,-1.6875 -2.06252,-1.14843 -3.77345,-2.89453 -5.13281,-5.23828 m 22.00781,-13.74609 c -4e-5,-4.75779 -0.98441,-8.48435 -2.95313,-11.17969 -1.94534,-2.71872 -4.62893,-4.07809 -8.05078,-4.07813 -3.42189,4e-5 -6.1172,1.35941 -8.08594,4.07813 -1.94532,2.69534 -2.91798,6.4219 -2.91796,11.17969 -2e-5,4.75782 0.97264,8.4961 2.91796,11.21484 1.96874,2.69532 4.66405,4.04297 8.08594,4.04297 3.42185,0 6.10544,-1.34765 8.05078,-4.04297 1.96872,-2.71874 2.95309,-6.45702 2.95313,-11.21484"
       inkscape:connector-curvature="0"
       id="path4074" />
    <path
       d="m 200.94922,843.15656 6.46875,0 0,54.70313 -6.46875,0 0,-54.70313"
       inkscape:connector-curvature="0"
       id="path4076" />
    <path
       d="m 236.17578,863.01985 c -3.46877,3e-5 -6.21095,1.3594 -8.22656,4.07812 -2.01564,2.69534 -3.02345,6.39846 -3.02344,11.10938 -1e-5,4.71095 0.99608,8.42579 2.98828,11.14453 2.01561,2.69532 4.76952,4.04297 8.26172,4.04297 3.44529,0 6.17575,-1.35937 8.19141,-4.07813 2.01559,-2.71874 3.0234,-6.42186 3.02343,-11.10937 -3e-5,-4.66404 -1.00784,-8.35544 -3.02343,-11.07422 -2.01566,-2.74216 -4.74612,-4.11325 -8.19141,-4.11328 m 0,-5.48438 c 5.62497,4e-5 10.04294,1.82816 13.25391,5.48438 3.2109,3.65628 4.81636,8.71877 4.8164,15.1875 -4e-5,6.44532 -1.6055,11.50782 -4.8164,15.1875 -3.21097,3.65625 -7.62894,5.48437 -13.25391,5.48437 -5.64845,0 -10.07814,-1.82812 -13.28906,-5.48437 -3.18751,-3.67968 -4.78126,-8.74218 -4.78125,-15.1875 -1e-5,-6.46873 1.59374,-11.53122 4.78125,-15.1875 3.21092,-3.65622 7.64061,-5.48434 13.28906,-5.48438"
       inkscape:connector-curvature="0"
       id="path4078" />
    <path
       d="m 264.93359,858.48469 6.46875,0 0,39.375 -6.46875,0 0,-39.375 m 0,-15.32813 6.46875,0 0,8.19141 -6.46875,0 0,-8.19141"
       inkscape:connector-curvature="0"
       id="path4080" />
    <path
       d="m 310.8125,864.46125 0,-21.30469 6.46875,0 0,54.70313 -6.46875,0 0,-5.90625 c -1.35941,2.34375 -3.08206,4.08985 -5.16797,5.23828 -2.06252,1.125 -4.5469,1.6875 -7.45312,1.6875 -4.75783,0 -8.63673,-1.89844 -11.63672,-5.69531 -2.97657,-3.79687 -4.46485,-8.78905 -4.46485,-14.97656 0,-6.18748 1.48828,-11.17966 4.46485,-14.97657 2.99999,-3.79683 6.87889,-5.69527 11.63672,-5.69531 2.90622,4e-5 5.3906,0.57426 7.45312,1.72266 2.08591,1.12503 3.80856,2.85941 5.16797,5.20312 m -22.04297,13.7461 c -10e-6,4.75782 0.97265,8.4961 2.91797,11.21484 1.96873,2.69532 4.66404,4.04297 8.08594,4.04297 3.42185,0 6.11716,-1.34765 8.08593,-4.04297 1.96872,-2.71874 2.9531,-6.45702 2.95313,-11.21484 -3e-5,-4.75779 -0.98441,-8.48435 -2.95313,-11.17969 -1.96877,-2.71872 -4.66408,-4.07809 -8.08593,-4.07813 -3.4219,4e-5 -6.11721,1.35941 -8.08594,4.07813 -1.94532,2.69534 -2.91798,6.4219 -2.91797,11.17969"
       inkscape:connector-curvature="0"
       id="path4082" />
    <path
       d="m 369.06641,843.22688 c -3.14065,5.39067 -5.47268,10.7227 -6.9961,15.99609 -1.52345,5.27347 -2.28517,10.61722 -2.28515,16.03125 -2e-5,5.41408 0.7617,10.78126 2.28515,16.10156 1.54686,5.29688 3.87889,10.62891 6.9961,15.9961 l -5.625,0 c -3.51564,-5.50782 -6.15236,-10.92188 -7.91016,-16.24219 -1.73438,-5.3203 -2.60157,-10.60545 -2.60156,-15.85547 -10e-6,-5.22653 0.86718,-10.48825 2.60156,-15.78516 1.73436,-5.29683 4.37108,-10.71088 7.91016,-16.24218 l 5.625,0"
       inkscape:connector-curvature="0"
       id="path4084" />
    <path
       d="m 388.68359,891.88313 24.78516,0 0,5.97656 -33.32813,0 0,-5.97656 c 2.69531,-2.78906 6.36327,-6.52733 11.00391,-11.21485 4.66404,-4.71091 7.59373,-7.74607 8.78906,-9.10547 2.27341,-2.55465 3.85544,-4.7109 4.7461,-6.46875 0.91403,-1.78121 1.37106,-3.5273 1.37109,-5.23828 -3e-5,-2.78902 -0.9844,-5.06245 -2.95312,-6.82031 -1.94534,-1.75777 -4.48831,-2.63667 -7.62891,-2.63672 -2.22658,5e-5 -4.58205,0.38677 -7.06641,1.16016 -2.46094,0.77348 -5.09766,1.94536 -7.91015,3.51562 l 0,-7.17187 c 2.85936,-1.14839 5.53124,-2.01557 8.01562,-2.60156 2.48436,-0.58589 4.7578,-0.87886 6.82031,-0.87891 5.43748,5e-5 9.77341,1.35943 13.00782,4.07812 3.23434,2.7188 4.85152,6.35161 4.85156,10.89844 -4e-5,2.15629 -0.41019,4.20707 -1.23047,6.15235 -0.79691,1.9219 -2.26175,4.19534 -4.39453,6.82031 -0.58597,0.67971 -2.44925,2.64846 -5.58984,5.90625 -3.14065,3.23439 -7.57034,7.76954 -13.28907,13.60547"
       inkscape:connector-curvature="0"
       id="path4086" />
    <path
       d="m 427.77734,845.37141 9.5625,0 23.27344,43.91015 0,-43.91015 6.89063,0 0,52.48828 -9.5625,0 -23.27344,-43.91016 0,43.91016 -6.89063,0 0,-52.48828"
       inkscape:connector-curvature="0"
       id="path4088" />
    <path
       d="m 480.33594,843.22688 5.625,0 c 3.51561,5.5313 6.1406,10.94535 7.875,16.24218 1.75779,5.29691 2.63669,10.55863 2.63672,15.78516 -3e-5,5.25002 -0.87893,10.53517 -2.63672,15.85547 -1.7344,5.32031 -4.35939,10.73437 -7.875,16.24219 l -5.625,0 c 3.11718,-5.36719 5.43749,-10.69922 6.96093,-15.9961 1.54687,-5.3203 2.3203,-10.68748 2.32032,-16.10156 -2e-5,-5.41403 -0.77345,-10.75778 -2.32032,-16.03125 -1.52344,-5.27339 -3.84375,-10.60542 -6.96093,-15.99609"
       inkscape:connector-curvature="0"
       id="path4090" />
  </g>
  <g
     transform="translate(74.714287,-828.52928)"
     id="flowRoot3241"
     style="font-size:72px;font-style:normal;font-weight:normal;text-align:center;writing-mode:lr-tb;text-anchor:middle;fill:#000000;fill-opacity:1;stroke:none;font-family:Bitstream Vera Sans">
    <path
       d="m 91.613281,845.37141 7.101563,0 0,21.51562 25.804686,0 0,-21.51562 7.10156,0 0,52.48828 -7.10156,0 0,-24.99609 -25.804686,0 0,24.99609 -7.101563,0 0,-52.48828"
       inkscape:connector-curvature="0"
       id="path4093" />
    <path
       d="m 163.36719,878.06672 c -5.22658,2e-5 -8.84767,0.59768 -10.86328,1.79297 -2.01564,1.19533 -3.02345,3.23439 -3.02344,6.11719 -1e-5,2.29688 0.74999,4.125 2.25,5.48437 1.52342,1.33594 3.58592,2.00391 6.1875,2.00391 3.58591,0 6.457,-1.26562 8.61328,-3.79688 2.17966,-2.55467 3.2695,-5.94139 3.26953,-10.16015 l 0,-1.44141 -6.43359,0 m 12.90234,-2.67187 0,22.46484 -6.46875,0 0,-5.97656 c -1.47659,2.39063 -3.31643,4.16016 -5.51953,5.30859 -2.20315,1.125 -4.89846,1.6875 -8.08594,1.6875 -4.03126,0 -7.2422,-1.125 -9.63281,-3.375 -2.36719,-2.27343 -3.55079,-5.30859 -3.55078,-9.10547 -1e-5,-4.42967 1.47656,-7.76951 4.42969,-10.01953 2.97655,-2.24998 7.40623,-3.37497 13.28906,-3.375 l 9.07031,0 0,-0.63281 c -3e-5,-2.97654 -0.9844,-5.27341 -2.95312,-6.89063 -1.94534,-1.64059 -4.68753,-2.4609 -8.22657,-2.46093 -2.25001,3e-5 -4.44142,0.26956 -6.57422,0.80859 -2.13282,0.5391 -4.1836,1.34769 -6.15234,2.42578 l 0,-5.97656 c 2.36718,-0.91403 4.66405,-1.59371 6.89063,-2.03906 2.22654,-0.46871 4.39451,-0.70309 6.5039,-0.70313 5.69529,4e-5 9.94919,1.4766 12.76172,4.42969 2.81247,2.95316 4.21871,7.42971 4.21875,13.42969"
       inkscape:connector-curvature="0"
       id="path4095" />
    <path
       d="m 195.88672,891.95344 0,20.88281 -6.50391,0 0,-54.35156 6.50391,0 0,5.97656 c 1.35936,-2.34371 3.0703,-4.07809 5.13281,-5.20312 2.08592,-1.1484 4.57029,-1.72262 7.45313,-1.72266 4.78122,4e-5 8.66012,1.89848 11.63671,5.69531 2.99996,3.79691 4.49996,8.78909 4.5,14.97657 -4e-5,6.18751 -1.50004,11.17969 -4.5,14.97656 -2.97659,3.79687 -6.85549,5.69531 -11.63671,5.69531 -2.88284,0 -5.36721,-0.5625 -7.45313,-1.6875 -2.06251,-1.14843 -3.77345,-2.89453 -5.13281,-5.23828 m 22.00781,-13.74609 c -3e-5,-4.75779 -0.98441,-8.48435 -2.95312,-11.17969 -1.94535,-2.71872 -4.62894,-4.07809 -8.05079,-4.07813 -3.42189,4e-5 -6.1172,1.35941 -8.08593,4.07813 -1.94533,2.69534 -2.91798,6.4219 -2.91797,11.17969 -1e-5,4.75782 0.97264,8.4961 2.91797,11.21484 1.96873,2.69532 4.66404,4.04297 8.08593,4.04297 3.42185,0 6.10544,-1.34765 8.05079,-4.04297 1.96871,-2.71874 2.95309,-6.45702 2.95312,-11.21484"
       inkscape:connector-curvature="0"
       id="path4097" />
    <path
       d="m 235.33203,843.15656 6.46875,0 0,54.70313 -6.46875,0 0,-54.70313"
       inkscape:connector-curvature="0"
       id="path4099" />
    <path
       d="m 270.55859,863.01985 c -3.46876,3e-5 -6.21095,1.3594 -8.22656,4.07812 -2.01564,2.69534 -3.02345,6.39846 -3.02344,11.10938 -10e-6,4.71095 0.99609,8.42579 2.98828,11.14453 2.01561,2.69532 4.76952,4.04297 8.26172,4.04297 3.44529,0 6.17576,-1.35937 8.19141,-4.07813 2.01559,-2.71874 3.0234,-6.42186 3.02344,-11.10937 -4e-5,-4.66404 -1.00785,-8.35544 -3.02344,-11.07422 -2.01565,-2.74216 -4.74612,-4.11325 -8.19141,-4.11328 m 0,-5.48438 c 5.62498,4e-5 10.04294,1.82816 13.25391,5.48438 3.2109,3.65628 4.81637,8.71877 4.81641,15.1875 -4e-5,6.44532 -1.60551,11.50782 -4.81641,15.1875 -3.21097,3.65625 -7.62893,5.48437 -13.25391,5.48437 -5.64845,0 -10.07813,-1.82812 -13.28906,-5.48437 -3.1875,-3.67968 -4.78125,-8.74218 -4.78125,-15.1875 0,-6.46873 1.59375,-11.53122 4.78125,-15.1875 3.21093,-3.65622 7.64061,-5.48434 13.28906,-5.48438"
       inkscape:connector-curvature="0"
       id="path4101" />
    <path
       d="m 299.31641,858.48469 6.46875,0 0,39.375 -6.46875,0 0,-39.375 m 0,-15.32813 6.46875,0 0,8.19141 -6.46875,0 0,-8.19141"
       inkscape:connector-curvature="0"
       id="path4103" />
    <path
       d="m 345.19531,864.46125 0,-21.30469 6.46875,0 0,54.70313 -6.46875,0 0,-5.90625 c -1.3594,2.34375 -3.08206,4.08985 -5.16797,5.23828 -2.06252,1.125 -4.54689,1.6875 -7.45312,1.6875 -4.75783,0 -8.63673,-1.89844 -11.63672,-5.69531 -2.97657,-3.79687 -4.46485,-8.78905 -4.46484,-14.97656 -1e-5,-6.18748 1.48827,-11.17966 4.46484,-14.97657 2.99999,-3.79683 6.87889,-5.69527 11.63672,-5.69531 2.90623,4e-5 5.3906,0.57426 7.45312,1.72266 2.08591,1.12503 3.80857,2.85941 5.16797,5.20312 m -22.04297,13.7461 c -10e-6,4.75782 0.97265,8.4961 2.91797,11.21484 1.96874,2.69532 4.66405,4.04297 8.08594,4.04297 3.42185,0 6.11716,-1.34765 8.08594,-4.04297 1.96872,-2.71874 2.95309,-6.45702 2.95312,-11.21484 -3e-5,-4.75779 -0.9844,-8.48435 -2.95312,-11.17969 -1.96878,-2.71872 -4.66409,-4.07809 -8.08594,-4.07813 -3.42189,4e-5 -6.1172,1.35941 -8.08594,4.07813 -1.94532,2.69534 -2.91798,6.4219 -2.91797,11.17969"
       inkscape:connector-curvature="0"
       id="path4105" />
    <path
       d="m 403.44922,843.22688 c -3.14065,5.39067 -5.47267,10.7227 -6.9961,15.99609 -1.52345,5.27347 -2.28516,10.61722 -2.28515,16.03125 -1e-5,5.41408 0.7617,10.78126 2.28515,16.10156 1.54686,5.29688 3.87889,10.62891 6.9961,15.9961 l -5.625,0 c -3.51564,-5.50782 -6.15236,-10.92188 -7.91016,-16.24219 -1.73438,-5.3203 -2.60157,-10.60545 -2.60156,-15.85547 -10e-6,-5.22653 0.86718,-10.48825 2.60156,-15.78516 1.73437,-5.29683 4.37108,-10.71088 7.91016,-16.24218 l 5.625,0"
       inkscape:connector-curvature="0"
       id="path4107" />
    <path
       d="m 416.31641,845.37141 9.5625,0 23.27343,43.91015 0,-43.91015 6.89063,0 0,52.48828 -9.5625,0 -23.27344,-43.91016 0,43.91016 -6.89062,0 0,-52.48828"
       inkscape:connector-curvature="0"
       id="path4109" />
    <path
       d="m 468.875,843.22688 5.625,0 c 3.51561,5.5313 6.14061,10.94535 7.875,16.24218 1.75779,5.29691 2.6367,10.55863 2.63672,15.78516 -2e-5,5.25002 -0.87893,10.53517 -2.63672,15.85547 -1.73439,5.32031 -4.35939,10.73437 -7.875,16.24219 l -5.625,0 c 3.11718,-5.36719 5.43749,-10.69922 6.96094,-15.9961 1.54686,-5.3203 2.32029,-10.68748 2.32031,-16.10156 -2e-5,-5.41403 -0.77345,-10.75778 -2.32031,-16.03125 -1.52345,-5.27339 -3.84376,-10.60542 -6.96094,-15.99609"
       inkscape:connector-curvature="0"
       id="path4111" />
  </g>
  <path
     d="m 144.71429,948.8329 c 22.95143,0 40,17.0486 40,40 0,0 0,85 0,160 0,75 -15,65 -15,75 0,10 15,0 15,80 0,35.3572 0,155 0,155 0,22.9514 -17.04857,45 -40,45 -22.95142,0 -45.71429,-19.9057 -45.71429,-42.8572 0,0 0.71429,-100.7142 0.71429,-157.1428 0,-80 15,-70 15,-80 0,-10 -15,0 -15,-75 0,-56.197 0,-160 0,-160 0,-22.9514 22.04858,-40 45,-40 z"
     inkscape:connector-curvature="0"
     id="path3150"
     style="fill:url(#linearGradient3960);fill-opacity:1;fill-rule:nonzero;stroke:#000000;stroke-width:2;stroke-linecap:round;stroke-linejoin:round;stroke-miterlimit:4;stroke-opacity:1;stroke-dasharray:none;stroke-dashoffset:0" />
  <path
     d="m 514.42858,948.8329 c 22.95143,0 40,17.0486 40,40 0,0 0,45 0,120 0,75 -15,65 -15,75 0,10 15,0 15,80 0,35.3572 0,117 0,117 0,22.9514 -17.04857,45 -40,45 -22.95142,0 -45.71429,-19.9057 -45.71429,-42.8572 0,0 0.71429,-62.7142 0.71429,-119.1428 0,-80 15,-70 15,-80 0,-10 -15,0 -15,-75 0,-56.197 0,-120 0,-120 0,-22.9514 22.04858,-40 45,-40 z"
     inkscape:connector-curvature="0"
     id="path3154"
     style="fill:url(#linearGradient3168);fill-opacity:1;fill-rule:nonzero;stroke:#000000;stroke-width:2;stroke-linecap:round;stroke-linejoin:round;stroke-miterlimit:4;stroke-opacity:1;stroke-dasharray:none;stroke-dashoffset:0" />
  <g
     transform="translate(74.714287,11.47072)"
     id="flowRoot3156"
     style="font-size:72px;font-style:normal;font-weight:normal;text-align:center;writing-mode:lr-tb;text-anchor:middle;fill:#000000;fill-opacity:1;stroke:none;font-family:Bitstream Vera Sans">
    <path
       d="m 69.007812,845.37141 44.402348,0 0,5.97656 -18.632816,0 0,46.51172 -7.136719,0 0,-46.51172 -18.632813,0 0,-5.97656"
       inkscape:connector-curvature="0"
       id="path4045" />
    <path
       d="m 132.28906,864.53156 c -0.72659,-0.42184 -1.52346,-0.72652 -2.39062,-0.91406 -0.84378,-0.2109 -1.78128,-0.31637 -2.8125,-0.3164 -3.65627,3e-5 -6.46877,1.19534 -8.4375,3.58593 -1.94533,2.36722 -2.91798,5.77737 -2.91797,10.23047 l 0,20.74219 -6.50391,0 0,-39.375 6.50391,0 0,6.11719 c 1.35936,-2.39059 3.12889,-4.16012 5.30859,-5.3086 2.17967,-1.17183 4.8281,-1.75777 7.94531,-1.75781 0.44529,4e-5 0.93748,0.0352 1.47657,0.10547 0.53903,0.0469 1.13669,0.12895 1.79297,0.24609 l 0.0352,6.64453"
       inkscape:connector-curvature="0"
       id="path4047" />
    <path
       d="m 139.14453,858.48469 6.46875,0 0,39.375 -6.46875,0 0,-39.375 m 0,-15.32813 6.46875,0 0,8.19141 -6.46875,0 0,-8.19141"
       inkscape:connector-curvature="0"
       id="path4049" />
    <path
       d="m 165.37109,891.95344 0,20.88281 -6.5039,0 0,-54.35156 6.5039,0 0,5.97656 c 1.35936,-2.34371 3.0703,-4.07809 5.13282,-5.20312 2.08591,-1.1484 4.57029,-1.72262 7.45312,-1.72266 4.78122,4e-5 8.66012,1.89848 11.63672,5.69531 2.99996,3.79691 4.49996,8.78909 4.5,14.97657 -4e-5,6.18751 -1.50004,11.17969 -4.5,14.97656 -2.9766,3.79687 -6.8555,5.69531 -11.63672,5.69531 -2.88283,0 -5.36721,-0.5625 -7.45312,-1.6875 -2.06252,-1.14843 -3.77346,-2.89453 -5.13282,-5.23828 m 22.00782,-13.74609 c -4e-5,-4.75779 -0.98441,-8.48435 -2.95313,-11.17969 -1.94534,-2.71872 -4.62893,-4.07809 -8.05078,-4.07813 -3.4219,4e-5 -6.11721,1.35941 -8.08594,4.07813 -1.94532,2.69534 -2.91798,6.4219 -2.91797,11.17969 -1e-5,4.75782 0.97265,8.4961 2.91797,11.21484 1.96873,2.69532 4.66404,4.04297 8.08594,4.04297 3.42185,0 6.10544,-1.34765 8.05078,-4.04297 1.96872,-2.71874 2.95309,-6.45702 2.95313,-11.21484"
       inkscape:connector-curvature="0"
       id="path4051" />
    <path
       d="m 204.81641,843.15656 6.46875,0 0,54.70313 -6.46875,0 0,-54.70313"
       inkscape:connector-curvature="0"
       id="path4053" />
    <path
       d="m 240.04297,863.01985 c -3.46877,3e-5 -6.21095,1.3594 -8.22656,4.07812 -2.01564,2.69534 -3.02345,6.39846 -3.02344,11.10938 -1e-5,4.71095 0.99608,8.42579 2.98828,11.14453 2.01561,2.69532 4.76951,4.04297 8.26172,4.04297 3.44529,0 6.17575,-1.35937 8.1914,-4.07813 2.0156,-2.71874 3.02341,-6.42186 3.02344,-11.10937 -3e-5,-4.66404 -1.00784,-8.35544 -3.02344,-11.07422 -2.01565,-2.74216 -4.74611,-4.11325 -8.1914,-4.11328 m 0,-5.48438 c 5.62497,4e-5 10.04294,1.82816 13.2539,5.48438 3.2109,3.65628 4.81637,8.71877 4.81641,15.1875 -4e-5,6.44532 -1.60551,11.50782 -4.81641,15.1875 -3.21096,3.65625 -7.62893,5.48437 -13.2539,5.48437 -5.64846,0 -10.07814,-1.82812 -13.28906,-5.48437 -3.18751,-3.67968 -4.78126,-8.74218 -4.78125,-15.1875 -1e-5,-6.46873 1.59374,-11.53122 4.78125,-15.1875 3.21092,-3.65622 7.6406,-5.48434 13.28906,-5.48438"
       inkscape:connector-curvature="0"
       id="path4055" />
    <path
       d="m 268.80078,858.48469 6.46875,0 0,39.375 -6.46875,0 0,-39.375 m 0,-15.32813 6.46875,0 0,8.19141 -6.46875,0 0,-8.19141"
       inkscape:connector-curvature="0"
       id="path4057" />
    <path
       d="m 314.67969,864.46125 0,-21.30469 6.46875,0 0,54.70313 -6.46875,0 0,-5.90625 c -1.35941,2.34375 -3.08206,4.08985 -5.16797,5.23828 -2.06253,1.125 -4.5469,1.6875 -7.45313,1.6875 -4.75782,0 -8.63673,-1.89844 -11.63672,-5.69531 -2.97656,-3.79687 -4.46484,-8.78905 -4.46484,-14.97656 0,-6.18748 1.48828,-11.17966 4.46484,-14.97657 2.99999,-3.79683 6.8789,-5.69527 11.63672,-5.69531 2.90623,4e-5 5.3906,0.57426 7.45313,1.72266 2.08591,1.12503 3.80856,2.85941 5.16797,5.20312 m -22.04297,13.7461 c -1e-5,4.75782 0.97264,8.4961 2.91797,11.21484 1.96873,2.69532 4.66404,4.04297 8.08593,4.04297 3.42185,0 6.11716,-1.34765 8.08594,-4.04297 1.96872,-2.71874 2.95309,-6.45702 2.95313,-11.21484 -4e-5,-4.75779 -0.98441,-8.48435 -2.95313,-11.17969 -1.96878,-2.71872 -4.66409,-4.07809 -8.08594,-4.07813 -3.42189,4e-5 -6.1172,1.35941 -8.08593,4.07813 -1.94533,2.69534 -2.91798,6.4219 -2.91797,11.17969"
       inkscape:connector-curvature="0"
       id="path4059" />
    <path
       d="m 372.93359,843.22688 c -3.14064,5.39067 -5.47267,10.7227 -6.99609,15.99609 -1.52345,5.27347 -2.28517,10.61722 -2.28516,16.03125 -10e-6,5.41408 0.76171,10.78126 2.28516,16.10156 1.54686,5.29688 3.87889,10.62891 6.99609,15.9961 l -5.625,0 c -3.51563,-5.50782 -6.15235,-10.92188 -7.91015,-16.24219 -1.73438,-5.3203 -2.60157,-10.60545 -2.60157,-15.85547 0,-5.22653 0.86719,-10.48825 2.60157,-15.78516 1.73436,-5.29683 4.37108,-10.71088 7.91015,-16.24218 l 5.625,0"
       inkscape:connector-curvature="0"
       id="path4061" />
    <path
       d="m 407.94922,869.55891 c 3.3984,0.72659 6.04684,2.23831 7.94531,4.53515 1.92184,2.2969 2.88277,5.13284 2.88281,8.50782 -4e-5,5.17969 -1.78128,9.1875 -5.34375,12.02343 -3.56253,2.83594 -8.62502,4.25391 -15.1875,4.25391 -2.20314,0 -4.47657,-0.22266 -6.82031,-0.66797 -2.32032,-0.42187 -4.72266,-1.0664 -7.20703,-1.93359 l 0,-6.85547 c 1.96874,1.14844 4.12499,2.01563 6.46875,2.60156 2.34374,0.58594 4.79295,0.87891 7.34766,0.87891 4.4531,0 7.83981,-0.8789 10.16015,-2.63672 2.34372,-1.7578 3.51559,-4.31249 3.51563,-7.66406 -4e-5,-3.09373 -1.08988,-5.50779 -3.26953,-7.24219 -2.15628,-1.75779 -5.168,-2.63669 -9.03516,-2.63672 l -6.11719,0 0,-5.83594 6.39844,0 c 3.49216,3e-5 6.16404,-0.69137 8.01562,-2.07422 1.85154,-1.40621 2.77732,-3.42183 2.77735,-6.04687 -3e-5,-2.69527 -0.96097,-4.75777 -2.88281,-6.1875 -1.89847,-1.45308 -4.62893,-2.17964 -8.19141,-2.17969 -1.94533,5e-5 -4.03127,0.21099 -6.25781,0.63281 -2.22658,0.42193 -4.67579,1.07818 -7.34766,1.96875 l 0,-6.32812 c 2.6953,-0.74995 5.21483,-1.31245 7.55859,-1.6875 2.36718,-0.37495 4.59374,-0.56245 6.67969,-0.5625 5.3906,5e-5 9.65622,1.23052 12.79688,3.69141 3.14059,2.43754 4.7109,5.74223 4.71093,9.91406 -3e-5,2.90629 -0.83206,5.36722 -2.49609,7.38281 -1.6641,1.99222 -4.03128,3.37503 -7.10156,4.14844"
       inkscape:connector-curvature="0"
       id="path4063" />
    <path
       d="m 431.64453,845.37141 9.5625,0 23.27344,43.91015 0,-43.91015 6.89062,0 0,52.48828 -9.5625,0 -23.27343,-43.91016 0,43.91016 -6.89063,0 0,-52.48828"
       inkscape:connector-curvature="0"
       id="path4065" />
    <path
       d="m 484.20312,843.22688 5.625,0 c 3.51562,5.5313 6.14061,10.94535 7.875,16.24218 1.7578,5.29691 2.6367,10.55863 2.63672,15.78516 -2e-5,5.25002 -0.87892,10.53517 -2.63672,15.85547 -1.73439,5.32031 -4.35938,10.73437 -7.875,16.24219 l -5.625,0 c 3.11718,-5.36719 5.43749,-10.69922 6.96094,-15.9961 1.54686,-5.3203 2.3203,-10.68748 2.32031,-16.10156 -1e-5,-5.41403 -0.77345,-10.75778 -2.32031,-16.03125 -1.52345,-5.27339 -3.84376,-10.60542 -6.96094,-15.99609"
       inkscape:connector-curvature="0"
       id="path4067" />
  </g>
  <use
     transform="translate(40,0)"
     id="use3170"
     x="0"
     y="0"
     width="1500"
     height="1690.83"
     xlink:href="#path3150" />
  <use
     transform="translate(40,0)"
     id="use3172"
     x="0"
     y="0"
     width="1500"
     height="1690.83"
     xlink:href="#use3170" />
  <use
     transform="translate(40,0)"
     id="use3950"
     x="0"
     y="0"
     width="1500"
     height="1690.83"
     xlink:href="#path3154" />
  <use
     transform="translate(40,0)"
     id="use3952"
     x="0"
     y="0"
     width="1500"
     height="1690.83"
     xlink:href="#use3950" />
  <use
     transform="translate(-40,0)"
     id="use3982"
     x="0"
     y="0"
     width="1500"
     height="1690.83"
     xlink:href="#use3962" />
  <use
     transform="translate(760,0)"
     id="use3962"
     x="0"
     y="0"
     width="1500"
     height="1690.83"
     xlink:href="#path3150" />
  <use
     transform="translate(800,0)"
     id="use3966"
     x="0"
     y="0"
     width="1500"
     height="1690.83"
     xlink:href="#path3154" />
  <use
     transform="translate(760,0)"
     id="use3970"
     x="0"
     y="0"
     width="1500"
     height="1690.83"
     xlink:href="#use3170" />
  <use
     transform="translate(760,0)"
     id="use3972"
     x="0"
     y="0"
     width="1500"
     height="1690.83"
     xlink:href="#use3172" />
  <use
     transform="translate(800,0)"
     id="use3978"
     x="0"
     y="0"
     width="1500"
     height="1690.83"
     xlink:href="#use3950" />
  <use
     transform="translate(800,0)"
     id="use3980"
     x="0"
     y="0"
     width="1500"
     height="1690.83"
     xlink:href="#use3952" />
  <use
     transform="translate(40,0)"
     id="use3984"
     x="0"
     y="0"
     width="1500"
     height="1690.83"
     xlink:href="#use3980" />
  <g
     transform="translate(854.71429,11.47072)"
     id="flowRoot3988"
     style="font-size:72px;font-style:normal;font-weight:normal;text-align:center;writing-mode:lr-tb;text-anchor:middle;fill:#000000;fill-opacity:1;stroke:none;font-family:Bitstream Vera Sans">
    <path
       d="m 21.476562,845.37141 44.402344,0 0,5.97656 -18.632812,0 0,46.51172 -7.136719,0 0,-46.51172 -18.632813,0 0,-5.97656"
       inkscape:connector-curvature="0"
       id="path4016" />
    <path
       d="m 93.933594,876.555 0,3.16406 -29.742188,0 c 0.281239,4.45314 1.617175,7.85158 4.007813,10.19532 2.414045,2.32032 5.765604,3.48047 10.054687,3.48047 2.484348,0 4.886689,-0.30469 7.207031,-0.91407 2.343716,-0.60937 4.664026,-1.52343 6.960938,-2.74218 l 0,6.11718 c -2.320349,0.98438 -4.699253,1.73438 -7.136719,2.25 -2.437529,0.51563 -4.910183,0.77344 -7.417969,0.77344 -6.281268,0 -11.261731,-1.82812 -14.941406,-5.48437 -3.656256,-3.65625 -5.484379,-8.60155 -5.484375,-14.83594 -4e-6,-6.44529 1.73437,-11.55466 5.203125,-15.32813 3.492175,-3.79683 8.191389,-5.69527 14.097656,-5.69531 5.296847,4e-5 9.480436,1.71098 12.550782,5.13281 3.093711,3.39847 4.640584,8.02737 4.640625,13.88672 m -6.46875,-1.89844 c -0.04691,-3.53903 -1.043002,-6.36325 -2.988282,-8.47265 -1.921904,-2.10934 -4.476589,-3.16403 -7.664062,-3.16406 -3.609395,3e-5 -6.503923,1.01956 -8.683594,3.05859 -2.156262,2.03909 -3.398449,4.91018 -3.726562,8.61328 l 23.0625,-0.0352"
       inkscape:connector-curvature="0"
       id="path4018" />
    <path
       d="m 110.94922,847.305 0,11.17969 13.32422,0 0,5.02734 -13.32422,0 0,21.375 c -1e-5,3.21095 0.43358,5.27345 1.30078,6.1875 0.89061,0.91407 2.68358,1.3711 5.37891,1.3711 l 6.64453,0 0,5.41406 -6.64453,0 c -4.99221,0 -8.43752,-0.92578 -10.33594,-2.77734 -1.89845,-1.875 -2.84766,-5.27343 -2.84766,-10.19532 l 0,-21.375 -4.746091,0 0,-5.02734 4.746091,0 0,-11.17969 6.50391,0"
       inkscape:connector-curvature="0"
       id="path4020" />
    <path
       d="m 155.63281,864.53156 c -0.72659,-0.42184 -1.52346,-0.72652 -2.39062,-0.91406 -0.84378,-0.2109 -1.78128,-0.31637 -2.8125,-0.3164 -3.65627,3e-5 -6.46877,1.19534 -8.4375,3.58593 -1.94533,2.36722 -2.91798,5.77737 -2.91797,10.23047 l 0,20.74219 -6.50391,0 0,-39.375 6.50391,0 0,6.11719 c 1.35936,-2.39059 3.12889,-4.16012 5.30859,-5.3086 2.17967,-1.17183 4.8281,-1.75777 7.94531,-1.75781 0.44529,4e-5 0.93748,0.0352 1.47657,0.10547 0.53903,0.0469 1.13669,0.12895 1.79297,0.24609 l 0.0352,6.64453"
       inkscape:connector-curvature="0"
       id="path4022" />
    <path
       d="m 180.38281,878.06672 c -5.22658,2e-5 -8.84767,0.59768 -10.86328,1.79297 -2.01564,1.19533 -3.02345,3.23439 -3.02344,6.11719 -1e-5,2.29688 0.74999,4.125 2.25,5.48437 1.52343,1.33594 3.58592,2.00391 6.1875,2.00391 3.58592,0 6.45701,-1.26562 8.61328,-3.79688 2.17966,-2.55467 3.26951,-5.94139 3.26954,-10.16015 l 0,-1.44141 -6.4336,0 m 12.90235,-2.67187 0,22.46484 -6.46875,0 0,-5.97656 c -1.4766,2.39063 -3.31644,4.16016 -5.51954,5.30859 -2.20314,1.125 -4.89845,1.6875 -8.08593,1.6875 -4.03127,0 -7.2422,-1.125 -9.63282,-3.375 -2.36719,-2.27343 -3.55078,-5.30859 -3.55078,-9.10547 0,-4.42967 1.47656,-7.76951 4.42969,-10.01953 2.97655,-2.24998 7.40624,-3.37497 13.28906,-3.375 l 9.07032,0 0,-0.63281 c -3e-5,-2.97654 -0.98441,-5.27341 -2.95313,-6.89063 -1.94534,-1.64059 -4.68752,-2.4609 -8.22656,-2.46093 -2.25002,3e-5 -4.44142,0.26956 -6.57422,0.80859 -2.13282,0.5391 -4.1836,1.34769 -6.15234,2.42578 l 0,-5.97656 c 2.36717,-0.91403 4.66405,-1.59371 6.89062,-2.03906 2.22655,-0.46871 4.39451,-0.70309 6.50391,-0.70313 5.69528,4e-5 9.94919,1.4766 12.76172,4.42969 2.81246,2.95316 4.21871,7.42971 4.21875,13.42969"
       inkscape:connector-curvature="0"
       id="path4024" />
    <path
       d="m 212.90234,891.95344 0,20.88281 -6.5039,0 0,-54.35156 6.5039,0 0,5.97656 c 1.35936,-2.34371 3.0703,-4.07809 5.13282,-5.20312 2.08591,-1.1484 4.57029,-1.72262 7.45312,-1.72266 4.78122,4e-5 8.66012,1.89848 11.63672,5.69531 2.99996,3.79691 4.49996,8.78909 4.5,14.97657 -4e-5,6.18751 -1.50004,11.17969 -4.5,14.97656 -2.9766,3.79687 -6.8555,5.69531 -11.63672,5.69531 -2.88283,0 -5.36721,-0.5625 -7.45312,-1.6875 -2.06252,-1.14843 -3.77346,-2.89453 -5.13282,-5.23828 m 22.00782,-13.74609 c -4e-5,-4.75779 -0.98441,-8.48435 -2.95313,-11.17969 -1.94534,-2.71872 -4.62893,-4.07809 -8.05078,-4.07813 -3.4219,4e-5 -6.11721,1.35941 -8.08594,4.07813 -1.94532,2.69534 -2.91798,6.4219 -2.91797,11.17969 -1e-5,4.75782 0.97265,8.4961 2.91797,11.21484 1.96873,2.69532 4.66404,4.04297 8.08594,4.04297 3.42185,0 6.10544,-1.34765 8.05078,-4.04297 1.96872,-2.71874 2.95309,-6.45702 2.95313,-11.21484"
       inkscape:connector-curvature="0"
       id="path4026" />
    <path
       d="m 252.34766,843.15656 6.46875,0 0,54.70313 -6.46875,0 0,-54.70313"
       inkscape:connector-curvature="0"
       id="path4028" />
    <path
       d="m 287.57422,863.01985 c -3.46877,3e-5 -6.21095,1.3594 -8.22656,4.07812 -2.01564,2.69534 -3.02345,6.39846 -3.02344,11.10938 -1e-5,4.71095 0.99608,8.42579 2.98828,11.14453 2.01561,2.69532 4.76951,4.04297 8.26172,4.04297 3.44529,0 6.17575,-1.35937 8.1914,-4.07813 2.0156,-2.71874 3.02341,-6.42186 3.02344,-11.10937 -3e-5,-4.66404 -1.00784,-8.35544 -3.02344,-11.07422 -2.01565,-2.74216 -4.74611,-4.11325 -8.1914,-4.11328 m 0,-5.48438 c 5.62497,4e-5 10.04294,1.82816 13.2539,5.48438 3.2109,3.65628 4.81637,8.71877 4.81641,15.1875 -4e-5,6.44532 -1.60551,11.50782 -4.81641,15.1875 -3.21096,3.65625 -7.62893,5.48437 -13.2539,5.48437 -5.64846,0 -10.07814,-1.82812 -13.28906,-5.48437 -3.18751,-3.67968 -4.78126,-8.74218 -4.78125,-15.1875 -1e-5,-6.46873 1.59374,-11.53122 4.78125,-15.1875 3.21092,-3.65622 7.6406,-5.48434 13.28906,-5.48438"
       inkscape:connector-curvature="0"
       id="path4030" />
    <path
       d="m 316.33203,858.48469 6.46875,0 0,39.375 -6.46875,0 0,-39.375 m 0,-15.32813 6.46875,0 0,8.19141 -6.46875,0 0,-8.19141"
       inkscape:connector-curvature="0"
       id="path4032" />
    <path
       d="m 362.21094,864.46125 0,-21.30469 6.46875,0 0,54.70313 -6.46875,0 0,-5.90625 c -1.35941,2.34375 -3.08206,4.08985 -5.16797,5.23828 -2.06253,1.125 -4.5469,1.6875 -7.45313,1.6875 -4.75782,0 -8.63673,-1.89844 -11.63672,-5.69531 -2.97656,-3.79687 -4.46484,-8.78905 -4.46484,-14.97656 0,-6.18748 1.48828,-11.17966 4.46484,-14.97657 2.99999,-3.79683 6.8789,-5.69527 11.63672,-5.69531 2.90623,4e-5 5.3906,0.57426 7.45313,1.72266 2.08591,1.12503 3.80856,2.85941 5.16797,5.20312 m -22.04297,13.7461 c -1e-5,4.75782 0.97264,8.4961 2.91797,11.21484 1.96873,2.69532 4.66404,4.04297 8.08593,4.04297 3.42185,0 6.11716,-1.34765 8.08594,-4.04297 1.96872,-2.71874 2.95309,-6.45702 2.95313,-11.21484 -4e-5,-4.75779 -0.98441,-8.48435 -2.95313,-11.17969 -1.96878,-2.71872 -4.66409,-4.07809 -8.08594,-4.07813 -3.42189,4e-5 -6.1172,1.35941 -8.08593,4.07813 -1.94533,2.69534 -2.91798,6.4219 -2.91797,11.17969"
       inkscape:connector-curvature="0"
       id="path4034" />
    <path
       d="m 420.46484,843.22688 c -3.14064,5.39067 -5.47267,10.7227 -6.99609,15.99609 -1.52345,5.27347 -2.28517,10.61722 -2.28516,16.03125 -10e-6,5.41408 0.76171,10.78126 2.28516,16.10156 1.54686,5.29688 3.87889,10.62891 6.99609,15.9961 l -5.625,0 c -3.51563,-5.50782 -6.15235,-10.92188 -7.91015,-16.24219 -1.73438,-5.3203 -2.60157,-10.60545 -2.60157,-15.85547 0,-5.22653 0.86719,-10.48825 2.60157,-15.78516 1.73436,-5.29683 4.37108,-10.71088 7.91015,-16.24218 l 5.625,0"
       inkscape:connector-curvature="0"
       id="path4036" />
    <path
       d="m 453.47656,851.55891 -17.92969,28.01953 17.92969,0 0,-28.01953 m -1.86328,-6.1875 8.92969,0 0,34.20703 7.48828,0 0,5.90625 -7.48828,0 0,12.375 -7.06641,0 0,-12.375 -23.69531,0 0,-6.85547 21.83203,-33.25781"
       inkscape:connector-curvature="0"
       id="path4038" />
    <path
       d="m 479.17578,845.37141 9.5625,0 23.27344,43.91015 0,-43.91015 6.89062,0 0,52.48828 -9.5625,0 -23.27343,-43.91016 0,43.91016 -6.89063,0 0,-52.48828"
       inkscape:connector-curvature="0"
       id="path4040" />
    <path
       d="m 531.73437,843.22688 5.625,0 c 3.51562,5.5313 6.14061,10.94535 7.875,16.24218 1.7578,5.29691 2.6367,10.55863 2.63672,15.78516 -2e-5,5.25002 -0.87892,10.53517 -2.63672,15.85547 -1.73439,5.32031 -4.35938,10.73437 -7.875,16.24219 l -5.625,0 c 3.11718,-5.36719 5.43749,-10.69922 6.96094,-15.9961 1.54686,-5.3203 2.3203,-10.68748 2.32031,-16.10156 -10e-6,-5.41403 -0.77345,-10.75778 -2.32031,-16.03125 -1.52345,-5.27339 -3.84376,-10.60542 -6.96094,-15.99609"
       inkscape:connector-curvature="0"
       id="path4042" />
  </g>
  <use
     transform="translate(720,0)"
     id="use3142"
     x="0"
     y="0"
     width="1500"
     height="1690.83"
     xlink:href="#path3171" />
  <use
     transform="translate(120,0)"
     id="use3144"
     x="0"
     y="0"
     width="1500"
     height="1690.83"
     xlink:href="#use3142" />
  <use
     transform="translate(-20,840)"
     id="use3146"
     x="0"
     y="0"
     width="1500"
     height="1690.83"
     xlink:href="#path3171" />
  <use
     transform="translate(40,0)"
     id="use3169"
     x="0"
     y="0"
     width="1500"
     height="1690.83"
     xlink:href="#use3146" />
  <use
     transform="translate(40,0)"
     id="use3171"
     x="0"
     y="0"
     width="1500"
     height="1690.83"
     xlink:href="#use3169" />
  <use
     transform="translate(680,0)"
     id="use3173"
     x="0"
     y="0"
     width="1500"
     height="1690.83"
     xlink:href="#use3171" />
  <use
     transform="translate(40,0)"
     id="use3175"
     x="0"
     y="0"
     width="1500"
     height="1690.83"
     xlink:href="#use3173" />
  <use
     transform="translate(40,0)"
     id="use3177"
     x="0"
     y="0"
     width="1500"
     height="1690.83"
     xlink:href="#use3175" />
  <use
     transform="translate(40,0)"
     id="use3179"
     x="0"
     y="0"
     width="1500"
     height="1690.83"
     xlink:href="#use3177" />
</svg>
